<svg xmlns="http://www.w3.org/2000/svg" width="104" height="24" viewBox="0 0 104 24">
  <path fill="#b2fce4" d="m91.96,23.94l-79.94,0a11.94,11.94 0 1 1 0,-23.88l79.94,0a11.94,11.94 0 1 1 0,23.88z"/>
  <g>
    <path d="m88.97,7.63l-2.3,-1.31l-2.33,-1.34a2.31,2.31 0 0 0 -3.47,2l0,0.3c0,0.17 0.1,0.32 0.24,0.4l1.08,0.62c0.3,0.17 0.67,-0.05 0.67,-0.4l0,-0.7c0,-0.35 0.38,-0.57 0.68,-0.4l2.13,1.22l2.11,1.22c0.3,0.17 0.3,0.61 0,0.79l-2.11,1.21l-2.13,1.22a0.46,0.46 0 0 1 -0.68,-0.4l0,-0.35c0,-1.78 -1.93,-2.9 -3.47,-2l-2.32,1.33l-2.3,1.32a2.32,2.32 0 0 0 0,4.01l2.3,1.31l2.32,1.34a2.31,2.31 0 0 0 3.47,-2l0,-0.3a0.45,0.45 0 0 0 -0.23,-0.4l-1.08,-0.62a0.45,0.45 0 0 0 -0.68,0.4l0,0.7c0,0.35 -0.37,0.57 -0.68,0.4l-2.12,-1.22l-2.12,-1.22a0.46,0.46 0 0 1 0,-0.79l2.12,-1.21l2.12,-1.22c0.3,-0.17 0.68,0.05 0.68,0.4l0,0.35c0,1.78 1.93,2.9 3.47,2l2.33,-1.33l2.3,-1.32a2.32,2.32 0 0 0 0,-4.01z"/>
    <path d="m73.9,8.07l-5.38,11.1l-2.22,0l2.01,-4.15l-3.16,-6.95l2.29,0l2.03,4.66l2.22,-4.66l2.22,0l-0.01,0z"/>
    <path d="m20.15,12.01c0,-1.33 -0.97,-2.26 -2.15,-2.26s-2.14,0.95 -2.14,2.26c0,1.3 0.96,2.26 2.14,2.26s2.15,-0.93 2.15,-2.26m0.02,3.94l0,-1.02a3.16,3.16 0 0 1 -2.5,1.15c-2.16,0 -3.8,-1.73 -3.8,-4.07c0,-2.32 1.71,-4.08 3.85,-4.08c1.01,0 1.86,0.44 2.45,1.13l0,-1l1.93,0l0,7.9l-1.93,0l0,-0.01z"/>
    <path d="m31.53,14.2c-0.68,0 -0.87,-0.25 -0.87,-0.92l0,-3.5l1.25,0l0,-1.7l-1.25,0l0,-1.94l-1.98,0l0,1.93l-2.58,0l0,-0.79c0,-0.66 0.26,-0.91 0.95,-0.91l0.44,0l0,-1.53l-0.96,0c-1.63,0 -2.41,0.54 -2.41,2.18l0,1.05l-1.1,0l0,1.73l1.1,0l0,6.16l1.98,0l0,-6.16l2.57,0l0,3.86c0,1.6 0.61,2.3 2.22,2.3l1.02,0l0,-1.76l-0.4,0l0.02,0z"/>
    <path d="m38.66,11.3c-0.14,-1.02 -0.98,-1.64 -1.96,-1.64s-1.79,0.6 -1.99,1.64l3.95,0zm-3.97,1.23a1.96,1.96 0 0 0 2.04,1.83c0.84,0 1.48,-0.4 1.86,-1.02l2.04,0c-0.47,1.67 -1.97,2.74 -3.94,2.74c-2.39,0 -4.06,-1.67 -4.06,-4.06s1.77,-4.1 4.1,-4.1a3.95,3.95 0 0 1 4.01,4.6l-6.04,0l-0.01,0.01z"/>
    <path d="m53.42,12.01c0,-1.27 -0.96,-2.26 -2.14,-2.26s-2.14,0.95 -2.14,2.26c0,1.3 0.96,2.26 2.14,2.26s2.14,-0.98 2.14,-2.26m-6.24,7.16l0,-11.1l1.94,0l0,1.02a3.13,3.13 0 0 1 2.49,-1.17c2.13,0 3.8,1.75 3.8,4.07s-1.7,4.08 -3.85,4.08c-1,0 -1.81,-0.39 -2.38,-1.05l0,4.14l-2,0l0,0.01z"/>
    <path d="m62.4,12.01c0,-1.33 -0.96,-2.26 -2.15,-2.26s-2.14,0.95 -2.14,2.26c0,1.3 0.96,2.26 2.14,2.26s2.15,-0.93 2.15,-2.26m0.02,3.94l0,-1.02a3.16,3.16 0 0 1 -2.5,1.15c-2.15,0 -3.8,-1.73 -3.8,-4.07c0,-2.32 1.71,-4.08 3.86,-4.08c1,0 1.85,0.44 2.44,1.13l0,-1l1.94,0l0,7.9l-1.94,0l0,-0.01z"/>
    <path d="m43.68,8.84s0.5,-0.92 1.7,-0.92c0.52,0 0.86,0.18 0.86,0.18l0,2.01s-0.73,-0.45 -1.4,-0.36s-1.1,0.7 -1.1,1.53l0,4.67l-2,0l0,-7.88l1.93,0l0,0.77l0.01,0z"/>
  </g>
</svg>
