<svg height="24" viewBox="0 0 104 24" width="104" xmlns="http://www.w3.org/2000/svg"><g fill="#fff"><path d="m81.03928 7.07778-6.74882 13.92204h-2.79606l2.52145-5.201-3.96108-8.72104h2.87095l2.54641 5.84177 2.77942-5.84177h2.78774z"/><path d="m55.35882 12.02081c0-1.59775-1.20663-2.82934-2.68788-2.82934s-2.68788 1.18999-2.68788 2.82934c0 1.62271 1.20663 2.82934 2.68788 2.82934s2.68788-1.2316 2.68788-2.82934m-7.83063 8.97901v-13.92204h2.42991v1.28153c.7323-.90705 1.82243-1.4646 3.1206-1.4646 2.67123 0 4.76828 2.1969 4.76828 5.10114s-2.13865 5.11779-4.82653 5.11779c-1.24824 0-2.2718-.49097-2.98746-1.32313v5.201h-2.5048v.00832z"/><path d="m66.61794 12.02081c0-1.66432-1.20663-2.82934-2.68788-2.82934s-2.68788 1.18999-2.68788 2.82934c0 1.62271 1.20663 2.82934 2.68788 2.82934s2.68788-1.17335 2.68788-2.82934m.01664 4.94303v-1.28153c-.7323.89041-1.82243 1.43964-3.1206 1.43964-2.71284 0-4.76828-2.17194-4.76828-5.10114 0-2.90424 2.13865-5.11779 4.82653-5.11779 1.26488 0 2.33005.55755 3.06235 1.42299v-1.24824h2.42991v9.88606h-2.42991z"/><path d="m43.1427 8.04308s.6158-1.14838 2.13865-1.14838c.64909 0 1.06517.22468 1.06517.22468v2.52145s-.91538-.56587-1.75586-.44937-1.37306.88209-1.37306 1.91397v5.85841h-2.51312v-9.88606h2.42991v.96531h.00832z"/><path d="m99.91268 6.52023-2.87927-1.64768-2.92088-1.67264c-1.93061-1.10677-4.34388.28293-4.34388 2.51312v.37447c0 .20804.10818.39944.29126.4993l1.35642.77391c.37447.21636.84048-.05825.84048-.49097v-.89041c0-.44104.47433-.71566.85713-.4993l2.66291 1.53117 2.65459 1.52285c.38279.21636.38279.77391 0 .99027l-2.65459 1.52285-2.66291 1.53117c-.38279.21636-.85713-.05825-.85713-.4993v-.44104c0-2.23019-2.41326-3.62822-4.34388-2.51312l-2.92088 1.67264-2.87927 1.64768c-1.93893 1.11509-1.93893 3.91947 0 5.03457l2.87927 1.64768 2.92088 1.67264c1.93061 1.10677 4.34388-.28293 4.34388-2.51312v-.37447c0-.20804-.10818-.39944-.29126-.4993l-1.35642-.77391c-.37447-.21636-.84048.05825-.84048.49097v.89041c0 .44104-.47433.71566-.85713.4993l-2.66291-1.53117-2.65459-1.52285c-.38279-.21636-.38279-.77391 0-.99027l2.65459-1.52285 2.66291-1.53117c.38279-.21636.85713.05825.85713.4993v.44104c0 2.23019 2.41326 3.62822 4.34388 2.51312l2.92088-1.67264 2.87927-1.64768c1.93893-1.12342 1.93893-3.91947 0-5.03457z"/><path d="m12.76885 13.27737c-.53258 2.2718-2.48816 3.83626-5.01793 3.83626-2.92088 0-5.11779-2.1969-5.11779-5.10114s2.23019-5.11779 5.15939-5.11779c2.47152 0 4.40213 1.56446 4.95968 3.79465h-2.57138c-.45769-.89041-1.36474-1.48125-2.37166-1.48125-1.4646 0-2.68788 1.20663-2.68788 2.80438s1.22328 2.80438 2.68788 2.80438c1.04852 0 1.95558-.59083 2.3883-1.5395h2.57138z"/><path d="m13.92555 16.95552v-13.94701h2.48816v13.94701z"/><path d="m20.15844 12.66989c.17475 1.4646 1.22328 2.28844 2.54641 2.28844 1.04852 0 1.85572-.49097 2.33005-1.28153h2.54641c-.59083 2.09704-2.47152 3.43682-4.94303 3.43682-2.98746 0-5.07618-2.09704-5.07618-5.07618s2.21355-5.13443 5.13443-5.13443c2.94585 0 5.07618 2.17194 5.07618 5.13443 0 .21636-.01664.43272-.05825.63244h-7.55602zm4.95968-1.54782c-.17475-1.28153-1.22328-2.05544-2.44655-2.05544-1.22328 0-2.23019.74894-2.48816 2.05544z"/><path d="m36.66017 16.95552v-1.28153c-.7323.89041-1.81411 1.43964-3.1206 1.43964-2.70452 0-4.75996-2.17194-4.75996-5.10114 0-2.90424 2.13033-5.11779 4.81821-5.11779 1.26488 0 2.33005.54923 3.06235 1.42299v-1.24824h2.42991v9.87774h-2.42991v.00832zm-.02496-4.94303c0-1.656-1.20663-2.82934-2.68788-2.82934s-2.68788 1.18167-2.68788 2.82934c0 1.62271 1.20663 2.82934 2.68788 2.82934s2.68788-1.16502 2.68788-2.82934z"/></g></svg>