<svg xmlns="http://www.w3.org/2000/svg" width="104" height="24" viewBox="0 0 104 24">
  <path fill="#b2fce4" d="m91.96,23.94l-79.94,0a11.94,11.94 0 1 1 0,-23.88l79.94,0a11.94,11.94 0 1 1 0,23.88z"/>
  <g>
    <path d="m75.4,8.03l-5.44,11.22l-2.26,0l2.03,-4.19l-3.2,-7.03l2.32,0l2.05,4.71l2.24,-4.7l2.24,0l0.02,-0.01z"/>
    <path d="m54.7,12.02c0,-1.29 -0.97,-2.28 -2.16,-2.28s-2.16,0.96 -2.16,2.28c0,1.3 0.97,2.28 2.16,2.28s2.17,-1 2.17,-2.28m-6.31,7.23l0,-11.22l1.95,0l0,1.04a3.16,3.16 0 0 1 2.52,-1.18c2.15,0 3.84,1.77 3.84,4.1s-1.72,4.13 -3.89,4.13c-1,0 -1.83,-0.4 -2.4,-1.07l0,4.2l-2.02,0z"/>
    <path d="m63.78,12.02c0,-1.34 -0.98,-2.28 -2.17,-2.28s-2.16,0.96 -2.16,2.28c0,1.3 0.97,2.28 2.16,2.28s2.17,-0.95 2.17,-2.28m0.01,3.98l0,-1.03a3.19,3.19 0 0 1 -2.51,1.16c-2.19,0 -3.85,-1.75 -3.85,-4.11c0,-2.34 1.73,-4.13 3.9,-4.13c1.01,0 1.87,0.45 2.46,1.15l0,-1l1.96,0l0,7.96l-1.96,0z"/>
    <path d="m44.86,8.81s0.5,-0.92 1.73,-0.92c0.52,0 0.86,0.18 0.86,0.18l0,2.03s-0.74,-0.46 -1.42,-0.36s-1.1,0.7 -1.1,1.54l0,4.72l-2.03,0l0,-7.97l1.96,0l0,0.78z"/>
    <path d="m90.6,7.59l-2.32,-1.33l-2.35,-1.35c-1.56,-0.9 -3.5,0.23 -3.5,2.03l0,0.3c0,0.16 0.08,0.32 0.23,0.4l1.1,0.62c0.3,0.18 0.67,-0.04 0.67,-0.4l0,-0.71c0,-0.36 0.38,-0.58 0.7,-0.4l2.14,1.23l2.14,1.23c0.3,0.17 0.3,0.62 0,0.8l-2.14,1.22l-2.15,1.24a0.46,0.46 0 0 1 -0.69,-0.4l0,-0.36c0,-1.8 -1.94,-2.92 -3.5,-2.03l-2.35,1.35l-2.32,1.33a2.34,2.34 0 0 0 0,4.05l2.32,1.33l2.35,1.35c1.56,0.9 3.5,-0.23 3.5,-2.03l0,-0.3a0.45,0.45 0 0 0 -0.23,-0.4l-1.1,-0.62a0.45,0.45 0 0 0 -0.67,0.4l0,0.71c0,0.36 -0.38,0.58 -0.7,0.4l-2.14,-1.23l-2.14,-1.23a0.46,0.46 0 0 1 0,-0.8l2.14,-1.22l2.15,-1.24c0.3,-0.17 0.69,0.05 0.69,0.4l0,0.36c0,1.8 1.94,2.92 3.5,2.03l2.35,-1.35l2.32,-1.33a2.34,2.34 0 0 0 0,-4.05z"/>
    <path d="m20.4,13.03a4,4 0 0 1 -4.05,3.09c-2.35,0 -4.12,-1.77 -4.12,-4.11s1.8,-4.12 4.16,-4.12c1.99,0 3.54,1.26 4,3.05l-2.09,0a2.17,2.17 0 0 0 -1.91,-1.19c-1.18,0 -2.17,0.97 -2.17,2.26s0.99,2.26 2.17,2.26c0.84,0 1.57,-0.48 1.92,-1.24l2.07,0l0.02,0z"/>
    <path d="m21.33,16l0,-11.25l2,0l0,11.23l-2,0l0,0.02z"/>
    <path d="m26.35,12.54a1.97,1.97 0 0 0 2.05,1.84c0.84,0 1.5,-0.4 1.88,-1.03l2.05,0c-0.48,1.69 -2,2.77 -3.98,2.77c-2.41,0 -4.1,-1.69 -4.1,-4.09s1.79,-4.14 4.14,-4.14a3.98,3.98 0 0 1 4.04,4.65l-6.08,0zm4,-1.25c-0.15,-1.03 -1,-1.65 -1.98,-1.65s-1.8,0.6 -2,1.65l3.97,0l0.01,0z"/>
    <path d="m39.64,16l0,-1.04a3.18,3.18 0 0 1 -2.51,1.16c-2.18,0 -3.84,-1.75 -3.84,-4.11c0,-2.34 1.72,-4.12 3.88,-4.12c1.02,0 1.88,0.44 2.47,1.14l0,-1l1.96,0l0,7.96l-1.96,0l0,0.01zm-0.02,-4c0,-1.33 -0.97,-2.28 -2.16,-2.28s-2.17,0.95 -2.17,2.28c0,1.3 0.97,2.28 2.17,2.28s2.16,-0.94 2.16,-2.28z"/>
  </g>
</svg>
