<svg height="24" viewBox="0 0 104 24" width="104" xmlns="http://www.w3.org/2000/svg"><g fill="#fff"><path d="m99.34556 6.40231-2.94123-1.68313-2.98374-1.70864c-1.97216-1.13059-4.43735.28902-4.43735 2.5672v.38253c0 .21252.11051.40803.29752.51004l1.38561.79056c.38253.22102.85857-.0595.85857-.50154v-.90957c0-.45054.48454-.73106.87557-.51004l2.72022 1.56412 2.71171 1.55562c.39103.22102.39103.79056 0 1.01158l-2.71171 1.55562-2.72022 1.56412c-.39103.22102-.87557-.0595-.87557-.51004v-.45054c0-2.27818-2.4652-3.70629-4.43735-2.5672l-2.98374 1.70864-2.94123 1.68313c-1.98066 1.13909-1.98066 4.00382 0 5.14291l2.94123 1.68313 2.98374 1.70864c1.97216 1.13059 4.43735-.28902 4.43735-2.5672v-.38253c0-.21252-.11051-.40803-.29752-.51004l-1.38561-.79056c-.38253-.22102-.85857.0595-.85857.50154v.90957c0 .45054-.48454.73106-.87557.51004l-2.72022-1.56412-2.71171-1.55562c-.39103-.22102-.39103-.79056 0-1.01158l2.71171-1.55562 2.72022-1.56412c.39103-.22102.87557.0595.87557.51004v.45054c0 2.27818 2.4652 3.70629 4.43735 2.5672l2.98374-1.70864 2.94123-1.68313c1.98066-1.14759 1.98066-4.00382 0-5.14291z"/><path d="m80.04903 6.96335-6.88554 14.22163h-2.85623l2.5757-5.31292-4.05482-8.9087h2.93273l2.60121 5.96747 2.83922-5.96747h2.84773z"/><path d="m11.20208 12.01275c0-1.70013-1.2326-2.89023-2.74572-2.89023s-2.74572 1.2156-2.74572 2.89023c0 1.65763 1.2326 2.89023 2.74572 2.89023s2.74572-1.19009 2.74572-2.89023m.0255 5.0494v-1.3091c-.74806.90957-1.86165 1.47062-3.18775 1.47062-2.77122 0-4.87089-2.21868-4.87089-5.21091 0-2.96673 2.18467-5.22791 4.93039-5.22791 1.2921 0 2.38019.56955 3.12825 1.45362v-1.2751h2.4822v10.0988h-2.4822z"/><path d="m25.78074 14.81797c-.86707 0-1.11359-.32303-1.11359-1.17309v-4.47985h1.59813v-2.20167h-1.59813v-2.4652h-2.5417v2.4652h-3.28126v-1.00308c0-.85007.32303-1.17309 1.2156-1.17309h.56104v-1.95515h-1.2241c-2.09967 0-3.09424.68855-3.09424 2.78822v1.35161h-1.41111v2.19317h1.41111v7.89712h2.5417v-7.89712h3.28126v4.94739c0 2.05716.79056 2.94973 2.84773 2.94973h1.3091v-2.24418h-.50154z"/><path d="m34.91046 11.10318c-.17851-1.3091-1.2496-2.09967-2.5077-2.09967-1.2496 0-2.28668.76506-2.5417 2.09967zm-5.0749 1.57262c.17851 1.49612 1.2496 2.34619 2.60971 2.34619 1.07108 0 1.89565-.50154 2.38019-1.3091h2.60971c-.60355 2.14217-2.5247 3.51078-5.0494 3.51078-3.05174 0-5.19391-2.14217-5.19391-5.19391s2.26118-5.25342 5.25342-5.25342c3.00924 0 5.19391 2.21868 5.19391 5.25342 0 .22102-.017.44203-.0595.64605h-7.74411z"/><path d="m53.82445 12.01275c0-1.63213-1.2326-2.89023-2.74572-2.89023s-2.74572 1.2156-2.74572 2.89023c0 1.65763 1.2326 2.89023 2.74572 2.89023s2.74572-1.2496 2.74572-2.89023m-7.99913 9.17223v-14.22163h2.4822v1.3091c.74806-.92657 1.86165-1.49612 3.18775-1.49612 2.72872 0 4.87089 2.24418 4.87089 5.21091s-2.18467 5.22791-4.93039 5.22791c-1.2751 0-2.32068-.50154-3.05174-1.35161v5.31292h-2.5587v.0085z"/><path d="m65.31736 12.01275c0-1.70013-1.2326-2.89023-2.74572-2.89023s-2.74572 1.2156-2.74572 2.89023c0 1.65763 1.2326 2.89023 2.74572 2.89023s2.74572-1.19009 2.74572-2.89023m.0255 5.0494v-1.3091c-.74806.90957-1.86165 1.47062-3.18775 1.47062-2.77122 0-4.87089-2.21868-4.87089-5.21091 0-2.96673 2.18467-5.22791 4.93039-5.22791 1.2921 0 2.38019.56955 3.12825 1.45362v-1.2751h2.4822v10.0988h-2.4822z"/><path d="m41.34547 7.94943s.62905-1.17309 2.18467-1.17309c.66305 0 1.08809.22952 1.08809.22952v2.5757s-.93507-.57805-1.79364-.45904-1.40261.90107-1.40261 1.95515v5.97597h-2.5672v-10.0903h2.4822v.98608h.0085z"/></g></svg>